<svg width="149" height="36" viewBox="0 0 149 36" fill="none" xmlns="http://www.w3.org/2000/svg">
<path d="M0.43405 0.87943H5.7821L7.35909 24.5343H0.0226614L0.43405 0.87943ZM3.21092 3.62202C2.59384 4.06769 2.2853 4.65049 2.2853 5.4047C2.2853 6.12464 2.59384 6.74172 3.21092 7.18739C3.82801 6.74172 4.13655 6.12464 4.13655 5.4047C4.13655 4.65049 3.82801 4.06769 3.21092 3.62202ZM3.51947 22.5459C4.13655 22.1002 4.44509 21.4831 4.44509 20.7632C4.44509 20.0433 4.13655 19.4262 3.51947 18.9805C2.90238 19.4262 2.59384 20.0433 2.59384 20.7632C2.59384 21.4831 2.90238 22.1002 3.51947 22.5459ZM3.55375 17.1293V17.7807C4.2394 17.7807 4.8222 17.5407 5.30215 17.0264C5.7821 16.5465 6.02208 15.9637 6.02208 15.278C6.02208 14.6267 5.7821 14.0439 5.30215 13.5296C4.8222 13.0497 4.2394 12.8097 3.55375 12.8097H3.51947C3.27949 12.8097 3.07379 12.7069 2.90238 12.5354C2.73097 12.364 2.62812 12.1241 2.62812 11.8841C2.62812 11.6441 2.73097 11.4041 2.90238 11.2327C3.07379 11.0613 3.31377 10.9585 3.55375 10.9585V10.3414C3.10808 10.3414 2.76525 10.4785 2.45671 10.787C2.14817 11.0956 2.01104 11.4384 2.01104 11.8841V11.9526C1.83963 11.6441 1.73678 11.3356 1.73678 10.9927C1.73678 10.4785 1.90819 10.0328 2.25102 9.69001C2.62812 9.3129 3.03951 9.14149 3.55375 9.14149V8.49012C2.8681 8.49012 2.2853 8.7301 1.80535 9.24433C1.32539 9.72429 1.08542 10.3071 1.08542 10.9927C1.08542 11.6784 1.32539 12.2612 1.80535 12.7411C2.2853 13.2211 2.8681 13.4611 3.55375 13.4611H3.58803C3.82801 13.4611 4.0337 13.5639 4.20511 13.7353C4.37653 13.9067 4.47937 14.1467 4.47937 14.3867C4.47937 14.6267 4.37653 14.8666 4.20511 15.0381C4.0337 15.2095 3.79373 15.3123 3.55375 15.3123V15.9294C3.99942 15.9294 4.34224 15.7923 4.65078 15.4837C4.95933 15.1752 5.13074 14.8324 5.13074 14.3867V14.3181C5.30215 14.6267 5.405 14.9352 5.405 15.278C5.405 15.7923 5.23359 16.2379 4.85648 16.5808C4.47937 16.9579 4.06798 17.1293 3.55375 17.1293ZM15.5148 9.86142H20.2115C23.6397 9.86142 25.7653 12.1241 25.7653 15.8608C25.7653 17.7464 24.9768 19.4948 23.3998 21.0375C21.8228 22.5802 19.6287 23.5744 16.8176 24.02L10.2011 24.5343V0.87943L14.692 1.01656L15.5148 9.86142ZM12.9436 8.79866L12.5323 9.27862L12.1209 9.72429L12.5665 10.17L13.0122 10.6156L13.4236 10.17L13.835 9.72429L13.3893 9.27862L12.9436 8.79866ZM13.4579 21.1403L13.835 20.6947L14.2464 20.249L13.8007 19.769L13.355 19.3234L12.9436 19.769L12.5665 20.249L13.0122 20.6947L13.4579 21.1403ZM13.2522 16.2722L13.9035 15.5523L14.5892 14.7981L13.835 14.0782L13.1151 13.3239L12.4637 14.0782L11.8123 14.7981L12.5323 15.5523L13.2522 16.2722ZM16.8861 12.0898L15.7205 12.0212L15.9262 14.421C16.5433 14.2153 17.1947 14.0782 17.846 13.9753C17.6403 13.1868 17.3318 12.5354 16.8861 12.0898ZM16.0633 15.6209L16.1662 16.8893L18.1546 16.4779C18.1203 16.0322 18.086 15.5866 18.0517 15.1066C17.3318 15.2095 16.6461 15.3809 16.0633 15.6209ZM20.0401 12.2955L18.3945 12.1926C18.6345 12.7069 18.8402 13.2554 18.9773 13.8382C19.423 13.8039 19.8344 13.8039 20.2115 13.8039L20.0401 12.2955ZM19.2173 15.0038L19.3202 16.2379L20.4858 15.9637L20.3486 14.9695C20.0058 14.9695 19.6287 14.9695 19.2173 15.0038ZM35.6327 9.45003C37.7582 9.45003 39.5752 10.2042 41.0493 11.7127C42.5577 13.2211 43.312 15.0381 43.312 17.1978C43.312 19.3576 42.5577 21.1746 41.0493 22.683C39.5752 24.1915 37.7582 24.9457 35.6327 24.9457C33.5415 24.9457 31.7245 24.1915 30.2161 22.683C28.7419 21.1746 27.9877 19.3576 27.9877 17.1978C27.9877 15.0381 28.7419 13.2211 30.2161 11.7127C31.7245 10.2042 33.5415 9.45003 35.6327 9.45003ZM33.1301 20.8318C34.0557 20.9003 34.6042 20.1119 34.6385 20.1119C34.0557 19.8376 33.5757 19.7005 33.1644 19.6662C33.1644 19.0491 33.0958 18.4663 32.9244 17.8835C32.753 17.2321 32.4444 16.7522 32.033 16.4094C31.6902 16.1008 31.2788 15.998 30.7989 16.1008C30.3875 16.1694 30.0789 16.3751 29.839 16.6836C29.599 17.0264 29.5304 17.4035 29.5647 17.8149C29.6676 18.2263 29.8733 18.5349 30.1818 18.7748C30.4903 19.0148 30.8674 19.0834 31.3131 19.0491L31.2103 18.5349C30.936 18.5691 30.696 18.5349 30.4903 18.3635C30.2504 18.2263 30.1132 18.0206 30.0789 17.7121C30.0447 17.4378 30.0789 17.1978 30.2504 16.9922C30.3875 16.7522 30.5932 16.615 30.8674 16.5808C31.2103 16.5465 31.4845 16.615 31.7245 16.7865C32.033 17.0607 32.273 17.4721 32.4444 18.0206C32.5816 18.5349 32.6501 19.1177 32.6501 19.7005C31.9645 19.7347 31.5874 20.1461 31.5874 20.1461C31.5531 20.1119 32.3073 20.7975 33.1301 20.8318ZM34.6728 22.5802C35.2213 21.7574 35.0499 21.3117 34.9813 21.106C34.947 21.0718 34.947 21.0375 34.947 21.0032C32.9587 21.6203 33.2672 23.9515 33.2329 23.9172C33.2329 23.9172 33.9529 23.5401 34.6728 22.5802ZM33.2672 15.9294C33.2672 18.0206 34.1586 19.7347 35.6327 19.7347C37.1411 19.7347 38.0325 18.0206 38.0325 15.9294C38.0325 13.8382 37.1411 12.1241 35.6327 12.1241C34.1586 12.1241 33.2672 13.8382 33.2672 15.9294ZM38.0667 23.9172C38.0667 23.9515 38.2724 21.6203 36.3526 21.0032C36.3526 21.0375 36.3526 21.0718 36.3183 21.106C36.2498 21.346 36.0441 21.7231 36.6269 22.5802C37.3468 23.5401 38.0667 23.9172 38.0667 23.9172ZM41.1179 18.7748C41.4264 18.5349 41.6321 18.2263 41.7007 17.8149C41.7692 17.4035 41.7007 17.0264 41.4607 16.6836C41.2207 16.3751 40.9122 16.1694 40.5008 16.1008C39.9866 15.998 39.5752 16.1008 39.2666 16.4094C38.8552 16.7522 38.5467 17.2321 38.3753 17.8835C38.2039 18.4663 38.1353 19.0491 38.1353 19.6662C37.7239 19.7005 37.244 19.8376 36.6612 20.1119C36.6612 20.1119 37.2782 20.9003 38.1696 20.8318C38.9924 20.7975 39.7466 20.1119 39.7123 20.1461C39.7123 20.1461 39.3352 19.7347 38.6495 19.7005C38.6495 19.1177 38.7181 18.5349 38.8552 18.0206C39.0267 17.4721 39.2666 17.0607 39.5752 16.7865C39.8151 16.615 40.0894 16.5465 40.3979 16.5808C40.7065 16.615 40.9122 16.7522 41.0493 16.9922C41.2207 17.1978 41.255 17.4378 41.2207 17.7121C41.1864 18.0206 41.0493 18.2263 40.8093 18.3635C40.6036 18.5349 40.3637 18.5691 40.0894 18.5349L39.9866 19.0148C40.4322 19.0834 40.8093 19.0148 41.1179 18.7748ZM34.2614 14.7638L34.9813 15.4837V16.4094L34.2614 17.1293C33.6786 16.4094 33.6786 15.4837 34.2614 14.7638ZM36.8326 14.5581L36.1126 15.278H35.187L34.4671 14.5581C35.187 14.0096 36.1126 14.0096 36.8326 14.5581ZM37.0383 17.1293L36.3183 16.4094V15.4837L37.0383 14.7638C37.5868 15.4837 37.5868 16.4094 37.0383 17.1293ZM34.4671 17.335L35.187 16.615H36.1126L36.8326 17.335C36.1126 17.9178 35.187 17.9178 34.4671 17.335ZM55.8497 14.7981L58.6951 9.86142L61.9862 24.4314L57.2895 24.9457L56.4325 19.0834L54.924 21.4831H53.587L51.8043 19.0834L51.3244 24.9457L45.1536 24.0886L48.3418 9.45003L52.25 14.7981H55.8497ZM47.4848 19.0148L47.9647 19.9062L48.479 19.0148L47.9647 18.1235L47.4848 19.0148ZM49.9531 17.6092C50.2274 17.2321 50.5359 16.9236 50.8444 16.6493C50.5359 16.3751 50.2274 16.0665 49.9531 15.6894C49.7131 15.3466 49.5417 14.9695 49.3703 14.5581C48.9932 15.4152 48.5475 16.1008 47.9647 16.6493C48.5475 17.1978 48.9932 17.8835 49.3703 18.7406C49.5417 18.3292 49.7131 17.9521 49.9531 17.6092ZM54.6155 17.4721L55.2669 16.8207C54.5812 16.2722 53.827 16.2722 53.1414 16.8207L53.7927 17.4721H54.6155ZM53.6213 17.6435L52.9699 16.9922C52.4557 17.6435 52.4557 18.432 52.9699 19.0834L53.6213 18.4663V17.6435ZM53.7927 18.6377L53.1414 19.2891C53.827 19.8033 54.5812 19.8033 55.2669 19.2891L54.6155 18.6377H53.7927ZM54.7869 18.4663L55.4383 19.0834C55.9525 18.432 55.9525 17.6435 55.4383 16.9922L54.7869 17.6435V18.4663ZM57.4952 17.6092C57.7352 17.9521 57.9066 18.3292 58.078 18.7406C58.4551 17.8835 58.9008 17.1978 59.4836 16.6493C58.9008 16.1008 58.4551 15.4152 58.078 14.5581C57.9066 14.9695 57.7352 15.3466 57.4952 15.6894C57.2552 16.0665 56.9467 16.3751 56.6039 16.6493C56.9467 16.9236 57.2552 17.2321 57.4952 17.6092ZM59.4836 18.1235L58.9694 19.0148L59.4836 19.9062L59.9978 19.0148L59.4836 18.1235ZM55.7468 24.2943H55.1297V22.7516H55.7468V24.2943ZM53.4156 24.2943H52.7985V22.7516H53.4156V24.2943ZM54.5812 24.9457H53.9641V21.9974H54.5812V24.9457ZM53.9984 13.2211C53.6556 12.3983 53.1756 11.7127 52.5928 11.1641C53.1756 10.5813 53.6556 9.8957 53.9984 9.07292C54.1698 9.45003 54.3755 9.82713 54.6155 10.17C54.8555 10.5471 55.164 10.8899 55.4726 11.1641C55.164 11.4041 54.8555 11.7469 54.6155 12.1241C54.3755 12.4669 54.1698 12.844 53.9984 13.2211ZM62.6461 35.299L62.7833 32.8649L80.713 31.9736L81.1929 35.7446L62.6461 35.299ZM65.3887 34.7162L65.7658 34.3733L66.1087 33.9962L65.7658 33.6534L65.3887 33.2763L65.0116 33.6534L64.6688 33.9962L65.0116 34.3733L65.3887 34.7162ZM69.1941 34.7162L69.5369 34.3733L69.914 33.9962L69.5369 33.6534L69.1941 33.2763L68.817 33.6534L68.4742 33.9962L68.817 34.3733L69.1941 34.7162ZM72.9309 34.7162L73.2737 34.3733L73.6508 33.9962L73.2737 33.6534L72.9309 33.2763L72.5538 33.6534L72.2109 33.9962L72.5538 34.3733L72.9309 34.7162ZM76.1877 34.7162L76.5648 34.3733L76.9076 33.9962L76.5648 33.6534L76.1877 33.2763L75.8106 33.6534L75.4678 33.9962L75.8106 34.3733L76.1877 34.7162ZM77.9361 34.0305C78.3818 35.4018 79.6845 35.0933 79.7531 35.0247L79.6159 34.5447C79.5817 34.5447 78.6903 34.8533 78.4161 33.8934C78.1761 33.002 79.3417 32.9335 79.3074 32.9335L79.2731 32.4192C79.2731 32.4535 77.559 32.5564 77.9361 34.0305ZM89.4662 17.0607C88.8834 17.8835 88.472 18.7748 88.1978 19.769C87.9235 20.7632 88.0949 21.8603 88.7463 23.0601L85.5923 21.7917V4.99332L88.8149 4.13626C88.1292 5.47327 87.9235 6.776 88.1978 8.01017C88.472 9.24433 88.8834 10.3071 89.4662 11.1641C90.0148 12.0898 90.529 13.2897 90.529 14.1124C90.529 14.9352 90.0148 16.1008 89.4662 17.0607ZM86.7236 14.1467C86.7236 14.7295 87.2036 15.2095 87.7864 15.2095C88.3692 15.2095 88.8492 14.7295 88.8492 14.1467C88.8492 13.5639 88.3692 13.084 87.7864 13.084C87.2036 13.084 86.7236 13.5639 86.7236 14.1467ZM102.528 9.8957L90.9404 8.11301L91.2832 11.8498L94.5057 12.0898L94.0944 17.7464L91.7289 16.9579L92.4145 24.5343L89.7405 23.4372C88.8492 22.2374 88.5063 21.1403 88.712 20.1461C88.952 19.1519 89.3291 18.2606 89.9119 17.4378C90.5633 16.4436 91.0775 15.1066 91.0775 14.1124C91.0775 13.0497 90.5633 11.7469 89.9119 10.7528C89.3634 9.8957 88.9863 8.86723 88.7463 7.66734C88.5063 6.43318 88.8149 5.19901 89.6719 3.93056L101.157 0.87943L102.528 9.8957ZM96.0827 12.8097L96.2541 12.4326L96.6998 12.364L97.6254 13.6325L97.454 14.0096L97.0426 14.0782L96.0827 12.8097ZM96.0827 16.9579L97.0426 15.7237L97.454 15.758L97.6254 16.1694L96.6998 17.4035L96.2541 17.3693L96.0827 16.9579ZM94.8486 15.0381L95.6713 14.2153L96.4941 15.0381L95.6713 15.8951L94.8486 15.0381ZM113.875 9.86142L118.332 10.7528L115.863 20.1804L110.515 19.1519L110.79 21.5174L115.349 22.5802L114.801 24.9457L106.127 23.2316L103.008 10.8556L109.11 9.86142H113.875ZM107.259 14.8324L106.401 16.2722L106.676 16.7179L107.19 16.7865L108.047 15.3466L107.773 14.9009L107.259 14.8324ZM108.218 20.6261L108.698 20.5575L108.836 20.1119L107.499 18.672L107.019 18.7406L106.881 19.1862L108.218 20.6261ZM107.978 17.9178L109.11 18.8777L109.898 17.9178L108.767 16.9579L107.978 17.9178ZM110.173 16.4779L112.812 16.5808L113.498 12.2955H109.521L110.173 16.4779ZM125.201 15.8951L129.829 19.7005C130.961 20.7632 130.858 22.4088 129.589 23.4715C128.664 24.2943 127.944 24.74 126.401 24.8771C124.241 25.1171 123.041 24.7057 121.807 23.7115L119.339 21.7917L121.499 19.1862L125.475 22.2031C125.887 22.4773 126.504 21.9631 126.092 21.5517L122.184 18.3977C120.299 16.9236 119.716 15.6551 120.813 13.6325C121.396 12.604 122.15 11.6784 123.144 10.8556C124.893 9.38146 126.332 9.14149 128.629 9.72429L132.812 11.8155L128.972 16.3408L126.607 14.5581C124.927 13.3925 124.138 14.8666 125.201 15.8951ZM128.081 14.6267L128.698 14.8324C128.938 14.1467 128.801 13.4268 128.355 12.6383L127.807 12.9811C128.149 13.5982 128.252 14.1467 128.081 14.6267ZM129.315 11.4041L129.075 12.0212C129.384 12.1926 129.726 12.2955 130.103 12.364C130.481 12.4326 130.823 12.4326 131.166 12.364L131.029 11.7469C130.755 11.7812 130.481 11.7812 130.241 11.7127C129.932 11.6784 129.624 11.5755 129.315 11.4041ZM127.669 11.267L127.567 11.9184C128.252 12.0898 129.966 14.0439 129.966 14.1467L130.481 13.7353C130.412 13.6668 128.664 11.5413 127.669 11.267ZM121.464 22.3402H122.561V21.2432H121.464V22.3402ZM123.898 12.2955C123.898 12.604 124.207 12.8783 124.515 12.8783C124.824 12.8783 125.098 12.604 125.098 12.2955C125.098 11.9869 124.824 11.7127 124.515 11.7127C124.207 11.7127 123.898 11.9869 123.898 12.2955ZM124.653 16.8207L124.687 18.5691L126.47 18.5349L124.653 16.8207ZM126.812 18.8777L126.881 20.6261L128.629 20.5918L126.812 18.8777ZM143.579 16.8893L148.207 20.009C147.247 22.923 144.813 24.9457 141.762 24.9457C137.751 24.9457 135.625 21.5517 135.419 17.6778L135.077 9.86142H135.042L131.854 5.85038L134.837 5.23329L134.631 0.433758L140.939 0.87943L140.733 3.96484L142.242 3.62202L143.853 6.91313L140.425 8.07873L139.91 15.998C139.842 17.0264 139.945 19.4948 141.556 19.5633C142.447 19.5633 143.133 18.672 143.579 16.8893ZM137.956 1.9079L137.648 2.76496L137.339 3.58774L137.648 4.41052L137.956 5.26758L138.231 4.41052L138.539 3.58774L138.231 2.76496L137.956 1.9079ZM136.139 5.64468L134.562 7.29024L136.208 8.83295L136.139 5.64468ZM137.648 18.8434L137.991 18.0206L138.333 17.1978L138.059 16.3751L137.819 15.518L137.476 16.3751L137.133 17.1978L137.408 18.0206L137.648 18.8434ZM137.853 14.8324L138.436 14.2838L139.019 13.701L138.471 13.1525L137.956 12.604L137.339 13.1525L136.756 13.701L137.305 14.2838L137.853 14.8324ZM137.648 9.55288L137.339 10.3757L137.648 11.1984L137.956 12.0212L138.231 11.1984L138.539 10.3757L138.231 9.55288L137.956 8.69582L137.648 9.55288ZM137.956 8.04445L138.505 7.46165L139.053 6.91313L138.505 6.36461L137.956 5.78181L137.373 6.36461L136.825 6.91313L137.373 7.46165L137.956 8.04445ZM141.419 6.12464L139.842 4.51336L139.773 7.70163L141.419 6.12464ZM141.659 23.3687C142.07 23.3687 142.413 23.0259 142.413 22.6145C142.413 22.2031 142.07 21.8603 141.659 21.8603C141.247 21.8603 140.905 22.2031 140.905 22.6145C140.905 23.0259 141.247 23.3687 141.659 23.3687ZM143.99 19.1177L144.299 21.1746L146.355 20.9003L143.99 19.1177ZM144.127 14.181H143.476C143.476 14.2153 143.476 12.8783 142.447 12.8783C141.487 12.8783 141.693 14.3867 141.693 14.421L141.042 14.4895C141.042 14.5238 140.665 12.1926 142.447 12.2269C144.161 12.1926 144.161 14.2496 144.127 14.181ZM142.104 10.5471L141.453 10.6499C141.419 10.6156 141.11 8.35299 142.859 8.35299C144.573 8.35299 144.573 10.3414 144.538 10.3414H143.853C143.853 10.3414 143.887 9.03864 142.859 9.03864C141.864 9.03864 142.104 10.5471 142.104 10.5471Z" fill="#5B9600"/>
</svg>
